<?xml version="1.0" encoding="UTF-8"?>
<svg version="1.1" xmlns="http://www.w3.org/2000/svg" width="502" height="497">
<path d="M0 0 C0 0.99 0 1.98 0 3 C-0.64582031 2.855625 -1.29164063 2.71125 -1.95703125 2.5625 C-21.31916586 -1.25165511 -42.25923359 -0.00945735 -59.2265625 10.921875 C-74.55778869 22.40949801 -85.51230419 36.19564745 -89.47265625 55.27734375 C-89.7702618 57.52824768 -89.91727815 59.73054403 -90 62 C-90.03996094 63.07121094 -90.07992187 64.14242187 -90.12109375 65.24609375 C-90.33466295 76.71601618 -89.21802199 86.71913882 -84 97 C-83.72542969 97.64195312 -83.45085937 98.28390625 -83.16796875 98.9453125 C-79.01791796 108.30661428 -71.97160875 115.84378123 -63.65234375 121.66015625 C-63.10707031 122.10230469 -62.56179687 122.54445312 -62 123 C-62 123.66 -62 124.32 -62 125 C-61.46117187 125.10570312 -60.92234375 125.21140625 -60.3671875 125.3203125 C-57.41426995 126.16817992 -54.87164211 127.4982542 -52.125 128.875 C-33.20025089 137.66149066 -13.92821001 136.32777497 5.38671875 129.8671875 C15.65773881 125.81248415 24.77446609 120.33145414 33 113 C33.66 113 34.32 113 35 113 C35.45872323 116.55838161 35.06849588 117.89274616 33.1015625 120.97265625 C31.87566406 122.50212891 31.87566406 122.50212891 30.625 124.0625 C27.47814155 127.91282514 27.47814155 127.91282514 24.9453125 132.15625 C23.74835632 134.49080915 22.25424643 135.75564205 20.25 137.4375 C19.53972656 138.035625 18.82945312 138.63375 18.09765625 139.25 C17.40542969 139.8275 16.71320313 140.405 16 141 C15.42121094 141.515625 14.84242188 142.03125 14.24609375 142.5625 C10.34960938 146 10.34960938 146 7 146 C7 146.66 7 147.32 7 148 C1.25 151 1.25 151 -1 151 C-1.33 181.03 -1.66 211.06 -2 242 C6.58 242 15.16 242 24 242 C27.34987344 246.46649792 27.39999816 248.91412732 27.25 254.1875 C27.24484375 254.92419922 27.2396875 255.66089844 27.234375 256.41992188 C27.15451389 261.84548611 27.15451389 261.84548611 26 263 C23.85692104 263.12537741 21.70921114 263.17574364 19.5625 263.1875 C18.38816406 263.20167969 17.21382812 263.21585937 16.00390625 263.23046875 C13 263 13 263 11 261 C11 260.01 11 259.02 11 258 C9.68 258.33 8.36 258.66 7 259 C6.67 261.31 6.34 263.62 6 266 C6.90093384 265.99214478 6.90093384 265.99214478 7.82006836 265.98413086 C10.52586838 265.96341986 13.23165177 265.95035875 15.9375 265.9375 C16.88302734 265.92912109 17.82855469 265.92074219 18.80273438 265.91210938 C19.70185547 265.90888672 20.60097656 265.90566406 21.52734375 265.90234375 C22.77632446 265.89448853 22.77632446 265.89448853 24.05053711 265.88647461 C26 266 26 266 27 267 C27.09851171 268.83115883 27.12972629 270.66619933 27.125 272.5 C27.12757813 273.5003125 27.13015625 274.500625 27.1328125 275.53125 C27 278 27 278 26 279 C24.21928754 279.08726223 22.4351686 279.10699041 20.65234375 279.09765625 C19.57275391 279.09443359 18.49316406 279.09121094 17.38085938 279.08789062 C15.67639648 279.07532227 15.67639648 279.07532227 13.9375 279.0625 C12.79732422 279.05798828 11.65714844 279.05347656 10.48242188 279.04882812 C7.65492582 279.0369976 4.82745655 279.0190615 2 279 C2 283.95 2 288.9 2 294 C5.3 293.67 8.6 293.34 12 293 C12.12375 292.030625 12.2475 291.06125 12.375 290.0625 C12.58125 289.051875 12.7875 288.04125 13 287 C15.47775095 285.76112452 17.23653707 285.83258331 20 285.8125 C20.886875 285.79832031 21.77375 285.78414063 22.6875 285.76953125 C25 286 25 286 27 288 C27.481637 291.77133911 27.37039005 295.57640331 27.375 299.375 C27.39949219 300.42945313 27.42398438 301.48390625 27.44921875 302.5703125 C27.45308594 303.58609375 27.45695313 304.601875 27.4609375 305.6484375 C27.46915527 306.57833496 27.47737305 307.50823242 27.48583984 308.46630859 C26.85562219 311.75294115 25.5732249 312.93086387 23 315 C20.640625 315.609375 20.640625 315.609375 18.25 315.75 C17.45078125 315.80671875 16.6515625 315.8634375 15.828125 315.921875 C15.22484375 315.94765625 14.6215625 315.9734375 14 316 C13.67 314.02 13.34 312.04 13 310 C8.05 310 3.1 310 -2 310 C-1.979375 311.258125 -1.95875 312.51625 -1.9375 313.8125 C-1.89113917 316.64051087 -2.08307039 318.24921116 -3 321 C-6.69486103 323.46324069 -8.63293092 323.38991688 -13 323 C-15.12796098 321.58135934 -15.7914615 320.65377891 -16.56237602 318.23692226 C-17.07855985 315.59844004 -17.12594813 313.14898929 -17.12698364 310.45924377 C-17.13121338 308.76740967 -17.13121338 308.76740967 -17.13552856 307.04139709 C-17.13249222 305.1908799 -17.13249222 305.1908799 -17.12939453 303.30297852 C-17.13202301 301.34834183 -17.13202301 301.34834183 -17.13470459 299.35421753 C-17.13926724 295.77670274 -17.13749213 292.19921678 -17.1343255 288.62170148 C-17.13178686 284.8585536 -17.13414447 281.09540812 -17.13571167 277.33226013 C-17.13753277 270.99453289 -17.13513257 264.65681727 -17.13037109 258.3190918 C-17.12496848 251.04513175 -17.12666194 243.77119992 -17.1321975 236.4972406 C-17.13677839 230.22172196 -17.13735396 223.94621169 -17.13475883 217.67069191 C-17.13321796 213.9370938 -17.13294004 210.20350879 -17.13629532 206.46991158 C-17.14890822 190.28820506 -16.99589814 174.15633564 -16 158 C-17.24830597 158.31694824 -18.49661194 158.63389648 -19.78274536 158.96044922 C-20.48491747 159.1387326 -21.18708958 159.31701599 -21.91053963 159.5007019 C-23.39099515 159.87698266 -24.87111654 160.25457839 -26.35107422 160.6328125 C-31.77777778 162 -31.77777778 162 -34 162 C-33.99539104 162.87244732 -33.99078207 163.74489464 -33.98603344 164.64377975 C-33.87567905 185.85862551 -33.7929042 207.07342189 -33.74093914 228.28849411 C-33.71514215 238.54790291 -33.67996306 248.8071203 -33.62280273 259.06640625 C-33.57301354 268.00695332 -33.54071987 276.94736179 -33.52955753 285.88804364 C-33.52303115 290.62346123 -33.50766143 295.35848224 -33.47134972 300.09377289 C-33.43746099 304.54910456 -33.42693253 309.00387557 -33.43446159 313.45932388 C-33.43308384 315.09603292 -33.42310866 316.73276032 -33.40397263 318.36935806 C-33.37914388 320.60197259 -33.38505495 322.83246227 -33.39872742 325.06512451 C-33.39411845 326.3150758 -33.38950949 327.56502708 -33.38476086 328.85285568 C-34 332 -34 332 -36.30711079 334.43342972 C-39 336 -39 336 -42.6875 336 C-46 335 -46 335 -47.18962669 333.36618423 C-48.26962686 330.21272479 -48.26353855 327.47639056 -48.2784729 324.14105225 C-48.2842653 323.45159775 -48.2900577 322.76214325 -48.29602563 322.0517962 C-48.31302548 319.74249116 -48.31590208 317.43338598 -48.31884766 315.12402344 C-48.32814585 313.46827708 -48.33831436 311.81253541 -48.34928894 310.15679932 C-48.37661526 305.66132175 -48.39174615 301.16587556 -48.40471697 296.67033672 C-48.42033598 291.97242821 -48.44713012 287.2745839 -48.4727478 282.57672119 C-48.51955736 273.68038754 -48.55629094 264.78404183 -48.58942068 255.88764787 C-48.62762667 245.75953404 -48.67704082 235.63148465 -48.72740483 225.50342512 C-48.83075708 204.66899765 -48.92000678 183.83452939 -49 163 C-50.05960937 162.72285156 -51.11921875 162.44570312 -52.2109375 162.16015625 C-53.59898869 161.794386 -54.98700787 161.42849428 -56.375 161.0625 C-57.07367188 160.88009766 -57.77234375 160.69769531 -58.4921875 160.50976562 C-63.7734375 159.11328125 -63.7734375 159.11328125 -66 158 C-65.99631283 158.82606373 -65.99262566 159.65212746 -65.98882675 160.50322342 C-65.90053784 180.59148613 -65.83432066 200.67971545 -65.79275131 220.76813126 C-65.772115 230.48269869 -65.74397401 240.19713671 -65.69824219 249.91162109 C-65.65840711 258.37752834 -65.63257496 266.84334188 -65.62364602 275.30934024 C-65.61842561 279.7931902 -65.6061337 284.27677206 -65.57707977 288.76053619 C-65.54996317 292.97943645 -65.54154733 297.19795775 -65.54756927 301.41693687 C-65.54646735 302.96655778 -65.5384909 304.51619114 -65.5231781 306.06573677 C-65.50330769 308.17989187 -65.50804837 310.29261178 -65.51898193 312.40679932 C-65.51529476 313.59038151 -65.51160759 314.7739637 -65.50780869 315.99341202 C-66.10352374 319.63238261 -67.08193437 320.8099661 -70 323 C-73.54450475 323.59075079 -75.25133257 323.46538786 -78.3125 321.5625 C-80.80446904 317.77839886 -80.73534036 314.49921392 -81 310 C-85.62 310.33 -90.24 310.66 -95 311 C-95.33 312.32 -95.66 313.64 -96 315 C-97.60332791 315.08121924 -99.20784026 315.13929134 -100.8125 315.1875 C-101.70582031 315.22230469 -102.59914062 315.25710938 -103.51953125 315.29296875 C-106 315 -106 315 -107.78125 313.828125 C-110.41034383 309.88448426 -109.82339303 304.59713285 -110 300 C-110.05285156 298.88238281 -110.10570312 297.76476562 -110.16015625 296.61328125 C-110.33183099 290.42552652 -110.33183099 290.42552652 -110 288 C-106.76085771 285.84057181 -105.75140267 285.72767022 -102 285.75 C-101.13375 285.74484375 -100.2675 285.7396875 -99.375 285.734375 C-97 286 -97 286 -94 288 C-93.8125 290.625 -93.8125 290.625 -94 293 C-91.03 293 -88.06 293 -85 293 C-83.61773984 290.23547967 -83.90474613 287.9538637 -83.9375 284.875 C-83.94652344 283.77929688 -83.95554688 282.68359375 -83.96484375 281.5546875 C-83.97644531 280.71164062 -83.98804688 279.86859375 -84 279 C-85.08269165 279.00785522 -85.08269165 279.00785522 -86.18725586 279.01586914 C-89.43732849 279.03657358 -92.68738728 279.04963918 -95.9375 279.0625 C-97.64196289 279.07506836 -97.64196289 279.07506836 -99.38085938 279.08789062 C-100.46044922 279.09111328 -101.54003906 279.09433594 -102.65234375 279.09765625 C-104.15269165 279.10551147 -104.15269165 279.10551147 -105.68334961 279.11352539 C-108 279 -108 279 -109 278 C-109.26007212 276.36154566 -109.45922323 274.71316296 -109.625 273.0625 C-109.72039062 272.16660156 -109.81578125 271.27070313 -109.9140625 270.34765625 C-110 268 -110 268 -109 266 C-102.07 266 -95.14 266 -88 266 C-88 263.36 -88 260.72 -88 258 C-90.44480079 258.18828772 -90.44480079 258.18828772 -93 259 C-94.18468266 260.99386866 -94.18468266 260.99386866 -95 263 C-97.14576637 263.02685938 -99.29162645 263.04633088 -101.4375 263.0625 C-102.63246094 263.07410156 -103.82742187 263.08570313 -105.05859375 263.09765625 C-108 263 -108 263 -109 262 C-109.12667764 259.00981839 -109.18520838 256.05305892 -109.1875 253.0625 C-109.20586914 251.80663086 -109.20586914 251.80663086 -109.22460938 250.52539062 C-109.22750977 249.32366211 -109.22750977 249.32366211 -109.23046875 248.09765625 C-109.23457764 247.36039307 -109.23868652 246.62312988 -109.24291992 245.86352539 C-109 244 -109 244 -107 242 C-104.29443359 241.77294922 -104.29443359 241.77294922 -100.8984375 241.8046875 C-99.08085937 241.81435547 -99.08085937 241.81435547 -97.2265625 241.82421875 C-95.95554688 241.84097656 -94.68453125 241.85773438 -93.375 241.875 C-92.09625 241.88402344 -90.8175 241.89304687 -89.5 241.90234375 C-86.33314833 241.92597697 -83.16666576 241.95892371 -80 242 C-79.80594265 230.55119568 -79.68794085 219.10433486 -79.66578102 207.65383244 C-79.6531259 202.33595148 -79.61474318 197.02090229 -79.51660156 191.70385742 C-79.42275937 186.5676032 -79.39775783 181.43511317 -79.41953659 176.2980938 C-79.41590957 174.34319667 -79.38788971 172.38818122 -79.33458328 170.43400764 C-78.69187968 160.32045122 -78.69187968 160.32045122 -82.37856293 151.31898117 C-86.18307788 148.04714369 -90.48240891 146.102859 -95 144 C-104.19681039 137.18773313 -113.01655929 127.34411398 -118 117 C-118.37898437 116.32324219 -118.75796875 115.64648438 -119.1484375 114.94921875 C-124.59965177 104.89745741 -127.61107893 93.43089749 -128 82 C-128.03996094 80.86046875 -128.07992187 79.7209375 -128.12109375 78.546875 C-128.45760867 59.30613954 -124.51389819 42.58804678 -113 27 C-112.2265625 25.63875 -112.2265625 25.63875 -111.4375 24.25 C-109.62499533 21.41303617 -107.43511842 19.3191604 -105 17 C-104.154375 16.154375 -103.30875 15.30875 -102.4375 14.4375 C-101.633125 13.633125 -100.82875 12.82875 -100 12 C-99.34 11.29875 -98.68 10.5975 -98 9.875 C-95.79656537 7.80928003 -93.62702288 6.49262663 -91 5 C-89.72756081 4.19001721 -88.45687125 3.37728233 -87.1875 2.5625 C-60.58172879 -13.95483752 -27.39515716 -14.45855517 0 0 Z " fill="#121212" transform="translate(293,93)"/>
<path d="M0 0 C14.03869875 14.99353672 20.2080569 33.37811316 20.1875 53.75 C19.02745792 69.6250964 16.23862522 81.87459431 4.1875 92.75 C-8.03057133 103.01569911 -22.69734541 103.76808022 -38.06640625 102.4765625 C-45.30157446 101.47665659 -51.35874918 99.11451465 -57.8125 95.75 C-58.49441406 95.40710938 -59.17632812 95.06421875 -59.87890625 94.7109375 C-72.39274755 88.06211469 -81.10797148 73.96287666 -85.80859375 61.00390625 C-90.41506058 45.81799407 -89.36600104 30.67941733 -82.6875 16.375 C-79.22373387 9.95899439 -75.03209123 4.81028593 -69.8125 -0.25 C-69.24917969 -0.82234375 -68.68585938 -1.3946875 -68.10546875 -1.984375 C-61.25641964 -8.45014399 -52.0311442 -12.64039546 -42.8125 -14.25 C-42.00683594 -14.394375 -41.20117188 -14.53875 -40.37109375 -14.6875 C-24.67465229 -16.8808892 -11.29409241 -10.63655963 0 0 Z " fill="#040404" transform="translate(319.8125,113.25)"/>
<path d="M0 0 C3.63 0 7.26 0 11 0 C11 0.33 11 0.66 11 1 C8.36 1.33 5.72 1.66 3 2 C3.00691345 3.30867098 3.00691345 3.30867098 3.01396656 4.64377975 C3.12432095 25.85862551 3.2070958 47.07342189 3.25906086 68.28849411 C3.28485785 78.54790291 3.32003694 88.8071203 3.37719727 99.06640625 C3.42698646 108.00695332 3.45928013 116.94736179 3.47044247 125.88804364 C3.47696885 130.62346123 3.49233857 135.35848224 3.52865028 140.09377289 C3.56253901 144.54910456 3.57306747 149.00387557 3.56553841 153.45932388 C3.56691616 155.09603292 3.57689134 156.73276032 3.59602737 158.36935806 C3.62085612 160.60197259 3.61494505 162.83246227 3.60127258 165.06512451 C3.60588155 166.3150758 3.61049051 167.56502708 3.61523914 168.85285568 C3 172 3 172 0.70070171 174.44905472 C-2.89909498 176.5163277 -5.04812261 175.9298535 -9 175 C-9 174.34 -9 173.68 -9 173 C-6.69 173.33 -4.38 173.66 -2 174 C-0.84288891 170.52866672 -0.86057138 167.81141896 -0.84178162 164.14741516 C-0.83684364 163.44656443 -0.83190566 162.7457137 -0.82681805 162.02362508 C-0.81143184 159.6698052 -0.8030794 157.31601262 -0.79467773 154.9621582 C-0.78510009 153.27700561 -0.77509008 151.59185542 -0.76467896 149.90670776 C-0.73761149 145.32646836 -0.71661189 140.74621864 -0.69667697 136.16594338 C-0.67482878 131.38129555 -0.64743438 126.59667961 -0.62062073 121.8120575 C-0.57067805 112.74922881 -0.52574506 103.68638243 -0.48259836 94.62351912 C-0.43323945 84.30681706 -0.37831633 73.99014699 -0.32291877 63.67347586 C-0.20907454 42.44901371 -0.10224081 21.22452101 0 0 Z " fill="#8B8B8B" transform="translate(256,253)"/>
<path d="M0 0 C0.66 0 1.32 0 2 0 C1.67 30.03 1.34 60.06 1 91 C9.58 91 18.16 91 27 91 C27.495 91.99 27.495 91.99 28 93 C24.03047101 92.88201056 20.06119219 92.75778201 16.09204102 92.62768555 C14.74085853 92.58428777 13.38961947 92.5426163 12.03833008 92.50268555 C10.09963299 92.44510048 8.16113724 92.38085702 6.22265625 92.31640625 C5.05484619 92.27974854 3.88703613 92.24309082 2.68383789 92.20532227 C0 92 0 92 -1 91 C-1.10051875 88.20547729 -1.13615894 85.43563645 -1.12939453 82.640625 C-1.13114685 81.76426392 -1.13289917 80.88790283 -1.13470459 79.98498535 C-1.13912432 77.07330373 -1.13618469 74.1616823 -1.1328125 71.25 C-1.1334855 69.23600248 -1.1344555 67.22200505 -1.13571167 65.20800781 C-1.13718881 60.98111195 -1.13503358 56.75423717 -1.13037109 52.52734375 C-1.1246738 47.09619468 -1.12795272 41.66509501 -1.13394356 36.23394775 C-1.13754874 32.07340113 -1.13641078 27.91286631 -1.13381577 23.75231934 C-1.13314638 21.74914545 -1.13397533 19.74597051 -1.13629532 17.74279785 C-1.13882115 14.94829448 -1.13498224 12.15387229 -1.12939453 9.359375 C-1.13141876 8.52297485 -1.13344299 7.68657471 -1.13552856 6.8248291 C-1.11426242 1.11426242 -1.11426242 1.11426242 0 0 Z " fill="#DFDFDF" transform="translate(290,244)"/>
<path d="M0 0 C2.64653131 0.30731987 5.292115 0.62059322 7.9375 0.9375 C8.69224609 1.02451172 9.44699219 1.11152344 10.22460938 1.20117188 C15.88671875 1.88671875 15.88671875 1.88671875 17 3 C17.09698498 5.18959038 17.12186727 7.3823753 17.12025452 9.57411194 C17.12110894 10.26917026 17.12196337 10.96422859 17.12284368 11.68034929 C17.12450049 14.02658986 17.11897387 16.37276008 17.11352539 18.71899414 C17.11324354 20.39399718 17.11340122 22.06900033 17.1139679 23.7440033 C17.11425594 28.30579279 17.10835814 32.86755623 17.10139394 37.42933965 C17.09516151 42.19129 17.09455669 46.9532409 17.09336853 51.7151947 C17.09025489 60.73915566 17.08204106 69.76310456 17.07201904 78.7870602 C17.06085893 89.05774487 17.05534771 99.32843009 17.05032361 109.59911931 C17.03985847 130.73275294 17.02225839 151.86637571 17 173 C16.67 173 16.34 173 16 173 C15.67 117.56 15.34 62.12 15 5 C10.05 3.68 5.1 2.36 0 1 C0 0.67 0 0.34 0 0 Z " fill="#C6C6C6" transform="translate(229,251)"/>
<path d="M0 0 C2 2 2 2 2.23046875 5.66015625 C2.22647733 7.12766864 2.21172158 8.59518209 2.1875 10.0625 C2.18685547 10.80822266 2.18621094 11.55394531 2.18554688 12.32226562 C2.14028159 17.85971841 2.14028159 17.85971841 1 19 C-1.14307896 19.12537741 -3.29078886 19.17574364 -5.4375 19.1875 C-7.19900391 19.20876953 -7.19900391 19.20876953 -8.99609375 19.23046875 C-12 19 -12 19 -14 17 C-14 16.01 -14 15.02 -14 14 C-15.32 14.33 -16.64 14.66 -18 15 C-18.33 17.31 -18.66 19.62 -19 22 C-18.39937744 21.99476318 -17.79875488 21.98952637 -17.17993164 21.98413086 C-14.47413162 21.96341986 -11.76834823 21.95035875 -9.0625 21.9375 C-8.11697266 21.92912109 -7.17144531 21.92074219 -6.19726562 21.91210938 C-4.84858398 21.90727539 -4.84858398 21.90727539 -3.47265625 21.90234375 C-2.22367554 21.89448853 -2.22367554 21.89448853 -0.94946289 21.88647461 C1 22 1 22 2 23 C2.09851171 24.83115883 2.12972629 26.66619933 2.125 28.5 C2.12886719 30.00046875 2.12886719 30.00046875 2.1328125 31.53125 C2 34 2 34 1 35 C-0.78071246 35.08726223 -2.5648314 35.10699041 -4.34765625 35.09765625 C-5.42724609 35.09443359 -6.50683594 35.09121094 -7.61914062 35.08789062 C-8.75544922 35.07951172 -9.89175781 35.07113281 -11.0625 35.0625 C-12.20267578 35.05798828 -13.34285156 35.05347656 -14.51757812 35.04882812 C-17.34507418 35.0369976 -20.17254345 35.0190615 -23 35 C-23 39.95 -23 44.9 -23 50 C-23.33 50 -23.66 50 -24 50 C-24 44.39 -24 38.78 -24 33 C-16.08 33 -8.16 33 0 33 C0 29.7 0 26.4 0 23 C-6.6 23 -13.2 23 -20 23 C-20 19.7 -20 16.4 -20 13 C-17.36 13 -14.72 13 -12 13 C-12 14.32 -12 15.64 -12 17 C-8.04 17 -4.08 17 0 17 C0 11.39 0 5.78 0 0 Z " fill="#E7E7E7" transform="translate(318,337)"/>
<path d="M0 0 C1.45925031 4.37775093 1.45348236 8.83047848 0.51367188 13.32666016 C-0.32399076 17.68616867 -0.41794694 22.07271848 -0.625 26.5 C-0.70234375 27.90572266 -0.70234375 27.90572266 -0.78125 29.33984375 C-0.82507813 30.24863281 -0.86890625 31.15742188 -0.9140625 32.09375 C-0.9548291 32.91552734 -0.9955957 33.73730469 -1.03759766 34.58398438 C-0.99741684 37.16599291 -0.57877277 39.48807028 0 42 C0.66 42 1.32 42 2 42 C4.66590937 46.55426184 5.31563182 49.73946963 5 55 C0.67959698 52.83979849 -0.52540215 46.31747459 -2 42 C-6.13695328 27.21498654 -5.08832528 14.46031046 0 0 Z " fill="#737373" transform="translate(236,132)"/>
<path d="M0 0 C5 5.34883721 5 5.34883721 5 8 C2.75 10.6875 2.75 10.6875 0 13 C-2.25 13 -2.25 13 -4 12 C-4.33 11.01 -4.66 10.02 -5 9 C-7.00016466 7.79117904 -7.00016466 7.79117904 -9 7 C-8.07347299 5.82460004 -7.13336613 4.65989423 -6.1875 3.5 C-5.66542969 2.8503125 -5.14335937 2.200625 -4.60546875 1.53125 C-3 0 -3 0 0 0 Z " fill="#919191" transform="translate(311,292)"/>
<path d="M0 0 C1.390625 1.64453125 1.390625 1.64453125 3.078125 4.14453125 C0.64552923 3.06337757 -1.10144386 1.98548455 -3.109375 0.20703125 C-6.78525898 -2.488617 -10.57670974 -3.60587874 -14.921875 -4.85546875 C-14.591875 -5.84546875 -14.261875 -6.83546875 -13.921875 -7.85546875 C-14.48132813 -7.84386719 -15.04078125 -7.83226563 -15.6171875 -7.8203125 C-20.89393246 -7.76092791 -26.15172424 -7.89631149 -31.421875 -8.16796875 C-32.6078125 -8.22597656 -33.79375 -8.28398438 -35.015625 -8.34375 C-35.9746875 -8.51261719 -36.93375 -8.68148437 -37.921875 -8.85546875 C-38.581875 -9.84546875 -39.241875 -10.83546875 -39.921875 -11.85546875 C-25.09489629 -14.36697739 -10.90798766 -10.53108565 0 0 Z " fill="#9B9B9B" transform="translate(316.921875,110.85546875)"/>
<path d="M0 0 C0.45872323 3.55838161 0.06849588 4.89274616 -1.8984375 7.97265625 C-2.71570313 8.99230469 -3.53296875 10.01195312 -4.375 11.0625 C-7.56721129 14.97788331 -7.56721129 14.97788331 -10.1015625 19.30859375 C-11 21 -11 21 -14 22 C-13.67 19.69 -13.34 17.38 -13 15 C-11.68 14.67 -10.36 14.34 -9 14 C-9.66868314 10.88667752 -9.66868314 10.88667752 -12.0625 9.8125 C-12.701875 9.544375 -13.34125 9.27625 -14 9 C-13.13375 8.443125 -12.2675 7.88625 -11.375 7.3125 C-9.02524211 5.75898708 -6.88042025 4.09181652 -4.75 2.25 C-2 0 -2 0 0 0 Z " fill="#818181" transform="translate(328,206)"/>
<path d="M0 0 C0.66 0.33 1.32 0.66 2 1 C2 1.66 2 2.32 2 3 C2.66 3 3.32 3 4 3 C5.38232443 4.62626404 6.71937515 6.2925002 8 8 C6.71034824 9.37562854 5.37310707 10.70766393 4 12 C3.34 12 2.68 12 2 12 C2 12.66 2 13.32 2 14 C1.01 14 0.02 14 -1 14 C-2.38671875 12.46875 -2.38671875 12.46875 -3.6875 10.5 C-4.34298828 9.52546875 -4.34298828 9.52546875 -5.01171875 8.53125 C-5.33785156 8.0259375 -5.66398438 7.520625 -6 7 C-4.625 5.5 -4.625 5.5 -3 4 C-2.34 4 -1.68 4 -1 4 C-0.67 2.68 -0.34 1.36 0 0 Z " fill="#3C3C3C" transform="translate(194,291)"/>
<path d="M0 0 C2.64653131 0.30731987 5.292115 0.62059322 7.9375 0.9375 C8.69224609 1.02451172 9.44699219 1.11152344 10.22460938 1.20117188 C15.88671875 1.88671875 15.88671875 1.88671875 17 3 C17.09429342 5.17805719 17.11742538 7.3592128 17.11352539 9.53930664 C17.11367142 10.22220261 17.11381744 10.90509857 17.1139679 11.60868835 C17.11326876 13.87587614 17.1054764 16.14298274 17.09765625 18.41015625 C17.09579207 19.97814387 17.09436817 21.54613207 17.09336853 23.11412048 C17.08954334 27.24876503 17.07971306 31.38337466 17.06866455 35.51800537 C17.05845044 39.73400398 17.05387091 43.95000822 17.04882812 48.16601562 C17.03809079 56.44402647 17.02101436 64.7220089 17 73 C16.67 73 16.34 73 16 73 C15.67 50.56 15.34 28.12 15 5 C10.05 3.68 5.1 2.36 0 1 C0 0.67 0 0.34 0 0 Z " fill="#CFCFCF" transform="translate(229,251)"/>
<path d="M0 0 C0.66 0 1.32 0 2 0 C2.2475 0.5775 2.495 1.155 2.75 1.75 C4.16683317 4.3002997 5.87627537 6.01785701 8 8 C7.195625 8.61875 6.39125 9.2375 5.5625 9.875 C2.96125481 11.74164041 2.96125481 11.74164041 2 14 C-1.04860014 12.98379995 -1.86666922 12.22608429 -4 10 C-4.66 9.67 -5.32 9.34 -6 9 C-5 6 -5 6 -2 4 C-0.80767387 1.94996045 -0.80767387 1.94996045 0 0 Z " fill="#585858" transform="translate(312,263)"/>
<path d="M0 0 C1.7143618 1.95927063 3.38405168 3.95880212 5 6 C3.35 8.31 1.7 10.62 0 13 C-2 12 -4 11 -6 10 C-6 9.34 -6 8.68 -6 8 C-6.66 8 -7.32 8 -8 8 C-8 7.34 -8 6.68 -8 6 C-7.34 6 -6.68 6 -6 6 C-5.67 5.01 -5.34 4.02 -5 3 C-2.44444444 0 -2.44444444 0 0 0 Z " fill="#737373" transform="translate(192,264)"/>
<path d="M0 0 C2 2 2 2 2.23046875 5.66015625 C2.22647733 7.12766864 2.21172158 8.59518209 2.1875 10.0625 C2.18685547 10.80822266 2.18621094 11.55394531 2.18554688 12.32226562 C2.14028159 17.85971841 2.14028159 17.85971841 1 19 C-1.14307896 19.12537741 -3.29078886 19.17574364 -5.4375 19.1875 C-7.19900391 19.20876953 -7.19900391 19.20876953 -8.99609375 19.23046875 C-12 19 -12 19 -14 17 C-14 16.01 -14 15.02 -14 14 C-15.32 14.33 -16.64 14.66 -18 15 C-18.33 17.31 -18.66 19.62 -19 22 C-19.33 22 -19.66 22 -20 22 C-20 19.03 -20 16.06 -20 13 C-17.36 13 -14.72 13 -12 13 C-12 14.32 -12 15.64 -12 17 C-8.04 17 -4.08 17 0 17 C0 11.39 0 5.78 0 0 Z " fill="#EEEEEE" transform="translate(318,337)"/>
<path d="M0 0 C0.99 0.66 1.98 1.32 3 2 C2.39671875 2.64066406 1.7934375 3.28132813 1.171875 3.94140625 C-3.27014973 8.74882334 -7.02818585 13.17067224 -10 19 C-10.99477045 20.66979326 -11.99260254 22.33779419 -13 24 C-14.40372288 21.19255424 -13.64698872 19.15109243 -12.85546875 16.21875 C-10.34445993 9.70617918 -4.96140055 4.72514338 0 0 Z " fill="#7B7B7B" transform="translate(221,110)"/>
<path d="M0 0 C0.86625 -0.00515625 1.7325 -0.0103125 2.625 -0.015625 C5 0.25 5 0.25 8 2.25 C8.1875 4.875 8.1875 4.875 8 7.25 C10.97 7.58 13.94 7.91 17 8.25 C17 8.58 17 8.91 17 9.25 C15.741875 9.29125 14.48375 9.3325 13.1875 9.375 C12.47980469 9.39820313 11.77210938 9.42140625 11.04296875 9.4453125 C9 9.25 9 9.25 6 7.25 C5.67 5.93 5.34 4.61 5 3.25 C1.37 2.92 -2.26 2.59 -6 2.25 C-6 10.17 -6 18.09 -6 26.25 C-6.33 26.25 -6.66 26.25 -7 26.25 C-7.61561405 20.04988704 -8.09914636 13.85525529 -8.25 7.625 C-8.27578125 6.64273437 -8.3015625 5.66046875 -8.328125 4.6484375 C-8.21984375 3.85695313 -8.1115625 3.06546875 -8 2.25 C-4.76085771 0.09057181 -3.75140267 -0.02232978 0 0 Z " fill="#CECECE" transform="translate(191,378.75)"/>
<path d="M0 0 C5.61 0 11.22 0 17 0 C17.33 1.65 17.66 3.3 18 5 C21.63 5 25.26 5 29 5 C26.60236815 7.39763185 25.66726502 7.34280586 22.375 7.625 C21.55773437 7.69976562 20.74046875 7.77453125 19.8984375 7.8515625 C19.27195312 7.90054687 18.64546875 7.94953125 18 8 C17.67 6.02 17.34 4.04 17 2 C12.05 2 7.1 2 2 2 C2.020625 3.258125 2.04125 4.51625 2.0625 5.8125 C2.10886083 8.64051087 1.91692961 10.24921116 1 13 C0.34 12.67 -0.32 12.34 -1 12 C-0.67 8.04 -0.34 4.08 0 0 Z " fill="#DEDEDE" transform="translate(289,401)"/>
<path d="M0 0 C3 1 3 1 4.1875 3.1875 C5.07334979 6.25390311 5.14770318 8.82438155 5 12 C5.99 12 6.98 12 8 12 C8.99 15.63 9.98 19.26 11 23 C6.12010425 20.01784148 4.74544454 16.60430475 2.89453125 11.4375 C2.06022654 9.00754413 2.06022654 9.00754413 0.89453125 6.859375 C-0.24660351 4.48740929 -0.14431511 2.59767202 0 0 Z " fill="#9E9E9E" transform="translate(170,195)"/>
<path d="M0 0 C10.32753662 0.25133386 18.98772569 4.24352189 28 9 C28 9.99 28 10.98 28 12 C22.06 11.01 22.06 11.01 16 10 C16 9.67 16 9.34 16 9 C17.65 9 19.3 9 21 9 C21 8.34 21 7.68 21 7 C14.0834212 4.57919742 7.12647031 2.70022388 0 1 C0 0.67 0 0.34 0 0 Z " fill="#E1E1E1" transform="translate(265,84)"/>
<path d="M0 0 C0.66 0.33 1.32 0.66 2 1 C1.62403791 3.78211944 1.32681541 5.5879284 -0.4375 7.8125 C-2 9 -2 9 -4 9 C-3.67 9.99 -3.34 10.98 -3 12 C-3.99609375 14.26171875 -3.99609375 14.26171875 -5.4375 16.6875 C-5.91058594 17.49574219 -6.38367188 18.30398437 -6.87109375 19.13671875 C-7.42990234 20.05904297 -7.42990234 20.05904297 -8 21 C-8.99 21 -9.98 21 -11 21 C-9.64895934 14.65010891 -6.69379956 10.26982071 -3 5 C-1.98511532 3.34235502 -0.97597602 1.68084758 0 0 Z " fill="#5F5F5F" transform="translate(183,115)"/>
<path d="M0 0 C6.19626477 5.75367443 11.770675 14.11126174 12.109375 22.80859375 C12.07328125 23.53175781 12.0371875 24.25492188 12 25 C8.28576708 21.79807507 6.6675749 18.58583098 5 14 C5 13.01 5 12.02 5 11 C4.34 10.67 3.68 10.34 3 10 C2.63128912 8.34080104 2.30404678 6.67225729 2 5 C1.36562656 3.3207762 0.70710678 1.64991582 0 0 Z " fill="#757575" transform="translate(324,120)"/>
<path d="M0 0 C5.28 0 10.56 0 16 0 C15.67 0.66 15.34 1.32 15 2 C11.83984375 2.4140625 11.83984375 2.4140625 7.9375 2.625 C6.64714844 2.69976562 5.35679687 2.77453125 4.02734375 2.8515625 C3.02832031 2.90054687 2.02929688 2.94953125 1 3 C0.67 4.32 0.34 5.64 0 7 C-1.62490954 7.02698189 -3.24994633 7.04638757 -4.875 7.0625 C-6.23238281 7.07990234 -6.23238281 7.07990234 -7.6171875 7.09765625 C-10 7 -10 7 -12 6 C-11.67 5.34 -11.34 4.68 -11 4 C-10.34 4.33 -9.68 4.66 -9 5 C-7.62657169 5.0689472 -6.24997898 5.08467708 -4.875 5.0625 C-3.59625 5.041875 -2.3175 5.02125 -1 5 C-0.67 3.35 -0.34 1.7 0 0 Z " fill="#F5F5F5" transform="translate(197,401)"/>
<path d="M0 0 C1.15371094 0.0515625 2.30742187 0.103125 3.49609375 0.15625 C4.68589844 0.22070312 5.87570312 0.28515625 7.1015625 0.3515625 C8.92107422 0.43664062 8.92107422 0.43664062 10.77734375 0.5234375 C13.76105687 0.66440032 16.74386346 0.81576496 19.7265625 0.9765625 C19.7265625 1.3065625 19.7265625 1.6365625 19.7265625 1.9765625 C18.45941406 2.03714844 17.19226563 2.09773438 15.88671875 2.16015625 C14.18749286 2.24464815 12.4882745 2.32929169 10.7890625 2.4140625 C9.54286133 2.47303711 9.54286133 2.47303711 8.27148438 2.53320312 C3.37099007 2.78108805 -1.4195277 3.20243281 -6.26782227 3.97290039 C-8.73376227 3.97740302 -10.169186 3.20986557 -12.2734375 1.9765625 C-7.96247093 0.32110614 -4.60293805 -0.22786822 0 0 Z " fill="#7E7E7E" transform="translate(261.2734375,91.0234375)"/>
<path d="M0 0 C4.3177458 0.50797009 8.03302114 1.19682779 12 3 C12 3.66 12 4.32 12 5 C5.73 4.67 -0.54 4.34 -7 4 C-7 3.34 -7 2.68 -7 2 C-3.535 1.505 -3.535 1.505 0 1 C0 0.67 0 0.34 0 0 Z " fill="#1D1D1D" transform="translate(274,88)"/>
<path d="M0 0 C0.54140625 0.28617188 1.0828125 0.57234375 1.640625 0.8671875 C4.29319347 2.1407717 6.97931482 3.13546958 9.75 4.125 C10.73484375 4.47820312 11.7196875 4.83140625 12.734375 5.1953125 C13.48203125 5.46085938 14.2296875 5.72640625 15 6 C15 6.66 15 7.32 15 8 C15.66 8 16.32 8 17 8 C16.67 9.32 16.34 10.64 16 12 C13.70342089 10.56988481 11.41287838 9.13141541 9.125 7.6875 C8.47402344 7.28337891 7.82304687 6.87925781 7.15234375 6.46289062 C4.05698379 4.50036859 2.058311 3.0874665 0 0 Z " fill="#858585" transform="translate(196,234)"/>
<path d="M0 0 C-0.33 0.99 -0.66 1.98 -1 3 C-3.95980532 2.91329863 -6.91646869 2.80646977 -9.875 2.6875 C-10.71675781 2.66494141 -11.55851562 2.64238281 -12.42578125 2.61914062 C-13.63427734 2.5659668 -13.63427734 2.5659668 -14.8671875 2.51171875 C-15.61081543 2.48553467 -16.35444336 2.45935059 -17.12060547 2.43237305 C-19 2 -19 2 -21 -1 C-13.54932699 -2.04819354 -7.2890898 -1.91318843 0 0 Z " fill="#636363" transform="translate(298,100)"/>
<path d="M0 0 C2.35953094 2.35953094 2.49141413 3.77895617 3 7 C3.66 7 4.32 7 5 7 C7.66590937 11.55426184 8.31563182 14.73946963 8 20 C3.77533461 17.88766731 2.52126567 11.25311598 1 7 C0.44286477 4.60431853 0.16764826 2.45884107 0 0 Z " fill="#929292" transform="translate(233,167)"/>
<path d="M0 0 C0.6875 1.8125 0.6875 1.8125 1 4 C-0.3125 5.75 -0.3125 5.75 -2 7 C-2.66 7 -3.32 7 -4 7 C-4.04125 7.721875 -4.0825 8.44375 -4.125 9.1875 C-5.38352165 13.23274817 -7.63589117 14.49481257 -11 17 C-9.42160732 10.1602984 -4.87740434 4.87740434 0 0 Z " fill="#898989" transform="translate(248,115)"/>
<path d="M0 0 C-0.33 1.65 -0.66 3.3 -1 5 C-4.80329367 6.26776456 -6.31742641 5.3809651 -10 4 C-10.99 3.67 -11.98 3.34 -13 3 C-8.44573816 0.33409063 -5.26053037 -0.31563182 0 0 Z " fill="#404040" transform="translate(320,216)"/>
<path d="M0 0 C1.00685307 3.0205592 1.02876261 4.47076266 0.6875 7.5625 C0.60886719 8.34753906 0.53023437 9.13257813 0.44921875 9.94140625 C0 12 0 12 -2 14 C-2.67940467 16.42715206 -2.67940467 16.42715206 -3.125 19.125 C-3.29257813 20.03507812 -3.46015625 20.94515625 -3.6328125 21.8828125 C-3.75398437 22.58148438 -3.87515625 23.28015625 -4 24 C-4.33 24 -4.66 24 -5 24 C-5.91703707 15.15568693 -3.25955975 8.07905166 0 0 Z " fill="#DDDDDD" transform="translate(171,136)"/>
<path d="M0 0 C4.50258143 1.14771683 8.10612956 2.4742462 12 5 C13.32608822 5.68096422 14.65686601 6.35330586 16 7 C16 7.66 16 8.32 16 9 C11.85701333 8.40165275 8.81805623 6.99335715 5.1875 4.9375 C4.21167969 4.38964844 3.23585938 3.84179688 2.23046875 3.27734375 C1.49441406 2.85582031 0.75835937 2.43429688 0 2 C0 1.34 0 0.68 0 0 Z " fill="#828282" transform="translate(255,203)"/>
<path d="M0 0 C0.89203125 0.01804687 1.7840625 0.03609375 2.703125 0.0546875 C3.71632812 0.08949219 3.71632812 0.08949219 4.75 0.125 C-0.10424369 3.36116246 -5.48129963 5.22364057 -11.25 6.125 C-10.3047226 3.76180651 -9.66996722 2.39497892 -7.5 1 C-4.84738096 -0.03157407 -2.83645051 -0.07464343 0 0 Z " fill="#8D8D8D" transform="translate(248.25,94.875)"/>
<path d="M0 0 C0.66 0 1.32 0 2 0 C2.2475 0.5775 2.495 1.155 2.75 1.75 C4.16683317 4.3002997 5.87627537 6.01785701 8 8 C7.01 8 6.02 8 5 8 C5 7.67 5 7.34 5 7 C2.36 6.67 -0.28 6.34 -3 6 C-2.01 4.02 -1.02 2.04 0 0 Z " fill="#ACACAC" transform="translate(312,263)"/>
<path d="M0 0 C0.99 0 1.98 0 3 0 C8 5.34883721 8 5.34883721 8 8 C7.01 8.33 6.02 8.66 5 9 C3.515 6.03 3.515 6.03 2 3 C0.68 3.99 -0.64 4.98 -2 6 C-2.66 5.67 -3.32 5.34 -4 5 C-2.1875 2.5 -2.1875 2.5 0 0 Z " fill="#C3C3C3" transform="translate(308,292)"/>
<path d="M0 0 C0 4.27840261 -2.28404432 5.82034457 -5 9 C-5.33 9.99 -5.66 10.98 -6 12 C-6.99 12.33 -7.98 12.66 -9 13 C-8.67 10.69 -8.34 8.38 -8 6 C-6.68 5.67 -5.36 5.34 -4 5 C-3.8453125 4.0409375 -3.8453125 4.0409375 -3.6875 3.0625 C-3.460625 2.381875 -3.23375 1.70125 -3 1 C-2.01 0.67 -1.02 0.34 0 0 Z " fill="#8F8F8F" transform="translate(323,215)"/>
<path d="M0 0 C3.9252025 3.70090521 6.94580156 7.54959656 10 12 C9.01 12 8.02 12 7 12 C7 11.34 7 10.68 7 10 C6.38125 9.95875 5.7625 9.9175 5.125 9.875 C4.073125 9.441875 4.073125 9.441875 3 9 C1.8125 6.125 1.8125 6.125 1 3 C0.67 2.01 0.34 1.02 0 0 Z " fill="#828282" transform="translate(211,197)"/>
<path d="M0 0 C2.46278801 2.46278801 2.99771255 4.70676982 4 8 C2.68 8.99 1.36 9.98 0 11 C-1.05404945 7.01803543 -0.84098656 4.01804691 0 0 Z " fill="#151515" transform="translate(309,293)"/>
<path d="M0 0 C0.66 0 1.32 0 2 0 C3.38232443 1.62626404 4.71937515 3.2925002 6 5 C4.71034824 6.37562854 3.37310707 7.70766393 2 9 C1.34 9 0.68 9 0 9 C0 6.03 0 3.06 0 0 Z " fill="#A3A3A3" transform="translate(196,294)"/>
<path d="M0 0 C4.75 0.875 4.75 0.875 7 2 C7 2.99 7 3.98 7 5 C1.06 4.01 1.06 4.01 -5 3 C-5 2.67 -5 2.34 -5 2 C-3.35 2 -1.7 2 0 2 C0 1.34 0 0.68 0 0 Z " fill="#989898" transform="translate(286,91)"/>
<path d="M0 0 C3 1 3 1 4.25 3.3125 C5.0275526 6.09873015 4.98726527 7.33438378 4 10 C1.2027092 7.93243723 0.97307727 6.85559629 0.3125 3.3125 C0.209375 2.219375 0.10625 1.12625 0 0 Z " fill="#6C6C6C" transform="translate(170,195)"/>
<path d="M0 0 C0.99 0.33 1.98 0.66 3 1 C0.42215154 3.64752004 -1.91648098 5.94432065 -5 8 C-5.99 7.67 -6.98 7.34 -8 7 C-6.74057614 5.80040625 -5.46704714 4.61560557 -4.1875 3.4375 C-3.12595703 2.44556641 -3.12595703 2.44556641 -2.04296875 1.43359375 C-1.36878906 0.96050781 -0.69460938 0.48742187 0 0 Z " fill="#8E8E8E" transform="translate(322,203)"/>
<path d="M0 0 C3.25836697 3.02562647 5.81492325 6.11541911 8 10 C7.75 12.375 7.75 12.375 7 14 C3.67039582 11.10002217 2.63383997 9.33123976 2 5 C1.36562656 3.3207762 0.70710678 1.64991582 0 0 Z " fill="#B0B0B0" transform="translate(324,120)"/>
<path d="M0 0 C0.66 0.33 1.32 0.66 2 1 C1.69381595 4.67420866 1.24228216 5.78135513 -1.5625 8.3125 C-2.366875 8.869375 -3.17125 9.42625 -4 10 C-4.33 9.01 -4.66 8.02 -5 7 C-3.125 4.4375 -3.125 4.4375 -1 2 C-0.67 1.34 -0.34 0.68 0 0 Z " fill="#888888" transform="translate(183,115)"/>
<path d="M0 0 C3.40739705 2.24578442 6.76478258 4.51137122 10 7 C9.67 7.66 9.34 8.32 9 9 C4.24352332 7.41450777 4.24352332 7.41450777 2 6 C0.5625 2.8125 0.5625 2.8125 0 0 Z " fill="#A6A6A6" transform="translate(221,209)"/>
<path d="M0 0 C6.17761989 3.5062167 6.17761989 3.5062167 8 6 C8.1875 8.6875 8.1875 8.6875 8 11 C2.19794344 5.35475578 2.19794344 5.35475578 0 2 C0 1.34 0 0.68 0 0 Z " fill="#939393" transform="translate(241,187)"/>
<path d="M0 0 C3.67230705 3.07999946 4.56802365 5.2482602 5 10 C3.0625 9.5 3.0625 9.5 1 8 C0.31209578 5.30341548 0.18053536 2.7982981 0 0 Z " fill="#777777" transform="translate(202,179)"/>
<path d="M0 0 C0.99 0.33 1.98 0.66 3 1 C2.67 1.99 2.34 2.98 2 4 C-0.06640625 4.73046875 -0.06640625 4.73046875 -2.5625 5.1875 C-3.38878906 5.34605469 -4.21507812 5.50460938 -5.06640625 5.66796875 C-6.02353516 5.83232422 -6.02353516 5.83232422 -7 6 C-4.74259377 3.66475218 -2.7194239 1.81294927 0 0 Z " fill="#858585" transform="translate(260,105)"/>
<path d="M0 0 C5.94 0.99 5.94 0.99 12 2 C12 2.66 12 3.32 12 4 C9.03 4 6.06 4 3 4 C3 3.34 3 2.68 3 2 C2.01 1.67 1.02 1.34 0 1 C0 0.67 0 0.34 0 0 Z " fill="#161616" transform="translate(249,227)"/>
<path d="M0 0 C0.33 0.66 0.66 1.32 1 2 C-0.32 2.33 -1.64 2.66 -3 3 C-3.33 4.32 -3.66 5.64 -4 7 C-5.98 7.33 -7.96 7.66 -10 8 C-10 7.34 -10 6.68 -10 6 C-7.8125 4.5625 -7.8125 4.5625 -5 3 C-4.071875 2.443125 -3.14375 1.88625 -2.1875 1.3125 C-1.1046875 0.6628125 -1.1046875 0.6628125 0 0 Z " fill="#9A9A9A" transform="translate(207,95)"/>
<path d="M0 0 C0.33 0.66 0.66 1.32 1 2 C-4.00932754 5.00559652 -7.32723489 5.29341888 -13 5 C-10.53698577 2.53698577 -8.72639964 2.23233479 -5.375 1.375 C-4.37210938 1.11460938 -3.36921875 0.85421875 -2.3359375 0.5859375 C-1.56507813 0.39257812 -0.79421875 0.19921875 0 0 Z " fill="#4C4C4C" transform="translate(221,90)"/>
<path d="M0 0 C2.53541298 0.09086451 5.03554784 0.2370945 7.5625 0.4375 C8.62887695 0.51581055 8.62887695 0.51581055 9.71679688 0.59570312 C11.47821999 0.72574107 13.23916173 0.86226897 15 1 C15 1.33 15 1.66 15 2 C8.4 2.33 1.8 2.66 -5 3 C-3.68 2.34 -2.36 1.68 -1 1 C-0.67 0.67 -0.34 0.34 0 0 Z " fill="#171717" transform="translate(245,84)"/>
<path d="M0 0 C-3.44450737 2.29633824 -5.93812283 2.54016485 -10 3 C-10.33 2.01 -10.66 1.02 -11 0 C-7.18243176 -1.37432457 -3.92744671 -0.67975039 0 0 Z " fill="#6D6D6D" transform="translate(277,250)"/>
<path d="M0 0 C0.99 0 1.98 0 3 0 C1.62845496 2.95409701 0.01136276 5.44008376 -2 8 C-2.66 7.67 -3.32 7.34 -4 7 C-3.67 5.68 -3.34 4.36 -3 3 C-2.34 3 -1.68 3 -1 3 C-0.67 2.01 -0.34 1.02 0 0 Z " fill="#7B7B7B" transform="translate(329,196)"/>
<path d="M0 0 C4.04352289 0.46656033 8.01928836 1.15560662 12 2 C12 2.33 12 2.66 12 3 C10.58376784 3.05447047 9.16691809 3.09300508 7.75 3.125 C6.96109375 3.14820313 6.1721875 3.17140625 5.359375 3.1953125 C2.79268059 2.9828378 1.2083933 2.28654105 -1 1 C-0.67 0.67 -0.34 0.34 0 0 Z " fill="#121212" transform="translate(230,249)"/>
<path d="M0 0 C0 3.15081975 -0.27898465 4.41847698 -2 7 C-4.125 7.75 -4.125 7.75 -6 8 C-2.25 1.125 -2.25 1.125 0 0 Z " fill="#A3A3A3" transform="translate(191,107)"/>
<path d="M0 0 C-0.165 0.763125 -0.33 1.52625 -0.5 2.3125 C-1.09145396 5.03596236 -1.09145396 5.03596236 -1 8 C-2.32 6.35 -3.64 4.7 -5 3 C-2.25 0 -2.25 0 0 0 Z " fill="#979797" transform="translate(193,295)"/>
<path d="M0 0 C1.00685307 3.0205592 1.02876261 4.47076266 0.6875 7.5625 C0.60886719 8.34753906 0.53023437 9.13257813 0.44921875 9.94140625 C0 12 0 12 -2 14 C-3.08577754 10.74266739 -2.90445241 9.67810011 -2.125 6.4375 C-1.94195312 5.65246094 -1.75890625 4.86742187 -1.5703125 4.05859375 C-1 2 -1 2 0 0 Z " fill="#747474" transform="translate(171,136)"/>
<path d="M0 0 C2.64 0.99 5.28 1.98 8 3 C8 3.66 8 4.32 8 5 C3.48279689 5.36625971 3.48279689 5.36625971 1.1875 3.625 C0 2 0 2 0 0 Z " fill="#0E0E0E" transform="translate(239,223)"/>
<path d="" fill="#FFFFFF" transform="translate(0,0)"/>
</svg>
